<svg width="1938" height="1232" viewBox="0 0 1938 1232" fill="none" xmlns="http://www.w3.org/2000/svg">
<path d="M55.1675 186.239C48.6676 189.717 43.4803 195.635 41.0972 203.219L13.6186 290.67C11.2998 298.05 12.0076 306.049 15.5862 312.906C19.1648 319.764 25.3211 324.92 32.7009 327.239L88.4629 344.76C89.4979 342.884 90.8567 341.145 92.5275 339.608L101.489 331.383L37.697 311.338C34.5342 310.345 31.8958 308.135 30.3621 305.196C28.8284 302.257 28.5251 298.829 29.5189 295.666L53.2503 220.14L164.552 255.113L161.419 265.082C167.083 264.842 172.727 265.884 177.931 268.131L184.199 248.184C186.582 240.599 185.712 232.779 182.369 226.208L182.494 225.81L182.097 225.686C178.504 218.948 172.405 213.894 165.117 211.615L77.6657 184.137C70.0813 181.754 62.2606 182.624 55.6899 185.967L55.2924 185.842L55.1675 186.239ZM169.191 274.041C171.813 274.606 174.344 275.531 176.713 276.789L156.448 295.386C155.462 296.236 154.656 297.276 154.079 298.444C153.502 299.612 153.165 300.883 153.089 302.184C153.013 303.484 153.199 304.786 153.636 306.014C154.073 307.241 154.752 308.368 155.632 309.327C156.513 310.287 157.577 311.06 158.763 311.601C159.948 312.141 161.229 312.438 162.531 312.473C163.833 312.509 165.129 312.283 166.342 311.808C167.555 311.333 168.661 310.62 169.592 309.71L189.86 291.105C192.134 296.44 192.767 302.331 191.677 308.028C190.587 313.724 187.824 318.966 183.741 323.085C179.657 327.203 174.439 330.012 168.753 331.151C163.066 332.29 157.169 331.709 151.815 329.481L114.603 363.648C112.229 365.829 109.085 366.978 105.864 366.841C102.643 366.705 99.6084 365.294 97.4273 362.92C95.2462 360.546 94.0976 357.402 94.2341 354.181C94.3706 350.96 95.7811 347.925 98.1553 345.744L135.302 311.645C133.699 306.764 133.414 301.546 134.476 296.519C135.537 291.493 137.908 286.836 141.347 283.02C144.786 279.203 149.172 276.363 154.062 274.786C158.951 273.21 164.17 272.953 169.191 274.041ZM97.7488 253.715C98.0976 254.458 98.2965 255.263 98.3343 256.083C98.372 256.903 98.2478 257.723 97.9686 258.495C97.6895 259.267 97.261 259.977 96.7075 260.583C96.1541 261.19 95.4865 261.681 94.7431 262.03L70.1985 273.508L83.7667 296.962C84.5968 298.398 84.8227 300.104 84.3947 301.706C83.9667 303.308 82.9198 304.674 81.4844 305.504C80.0491 306.335 78.3427 306.56 76.7408 306.132C75.1388 305.704 73.7725 304.658 72.9424 303.222L55.9617 273.865C55.5275 273.115 55.2541 272.283 55.1589 271.421C55.0636 270.56 55.1486 269.688 55.4085 268.861C55.6683 268.034 56.0973 267.27 56.6681 266.618C57.239 265.966 57.9393 265.44 58.7246 265.073L89.4445 250.704C90.1881 250.356 90.9931 250.157 91.8133 250.12C92.6336 250.083 93.4531 250.209 94.225 250.488C94.997 250.768 95.7062 251.197 96.3122 251.752C96.9181 252.306 97.409 252.974 97.7567 253.717L97.7488 253.715ZM104.854 313.249L125.54 303.572C125.308 295.268 127.843 287.123 132.745 280.417L121.356 260.731C120.945 260.02 120.398 259.397 119.746 258.898C119.095 258.399 118.351 258.033 117.558 257.821C116.765 257.609 115.938 257.555 115.124 257.663C114.31 257.771 113.525 258.038 112.814 258.449C112.103 258.86 111.481 259.407 110.981 260.059C110.482 260.71 110.116 261.454 109.904 262.247C109.692 263.04 109.638 263.868 109.746 264.681C109.854 265.495 110.121 266.28 110.532 266.991L124.1 290.445L99.5556 301.924C98.0537 302.626 96.8924 303.897 96.3272 305.456C95.7621 307.014 95.8393 308.734 96.5419 310.236C97.2446 311.738 98.5151 312.899 100.074 313.464C101.633 314.029 103.352 313.952 104.854 313.249Z" fill="#4A587A"/>
<path d="M919.525 1056.51L838.555 1076.16C836.427 1076.68 834.42 1077.61 832.651 1078.9C830.882 1080.19 829.385 1081.82 828.245 1083.69C827.106 1085.56 826.346 1087.63 826.009 1089.8C825.673 1091.96 825.766 1094.17 826.284 1096.3C827.327 1100.6 830.033 1104.3 833.807 1106.6C837.581 1108.9 842.114 1109.61 846.409 1108.56L927.387 1088.89M956.511 1110.2L967.292 1154.62C968.334 1158.91 967.627 1163.44 965.328 1167.22C963.028 1170.99 959.324 1173.7 955.029 1174.74C950.734 1175.78 946.202 1175.08 942.428 1172.78C938.654 1170.48 935.947 1166.77 934.904 1162.48L917.638 1091.38M916.313 1008.66L898.144 1004.47L898.386 970.125L914.58 966.194L930.546 996.62L916.313 1008.66ZM916.313 1008.66L924.181 1041.07" stroke="#3F3D56" stroke-width="12.5" stroke-linecap="round" stroke-linejoin="round"/>
<path d="M919.524 1056.51C922.854 1037.53 936.278 1018.14 956.205 1013.3C976.133 1008.46 1000.63 1019.67 1008.6 1034.88L973.786 1043.33L958.282 1064.25L981.644 1075.73L1016.46 1067.27C1016.36 1084.46 999.717 1105.64 979.794 1110.47C959.867 1115.31 939.055 1104.24 927.394 1088.9" stroke="#3F3D56" stroke-width="12.5" stroke-linecap="round" stroke-linejoin="round"/>
<path d="M1369.45 1038.28C1375.76 1053.39 1378.13 1069.64 1376.35 1085.56L1405.31 1097.9L1384.73 1146.2L1355.77 1133.86C1345.52 1146.18 1332.16 1155.74 1316.88 1161.66L1321.23 1191.66L1266.87 1197.02L1262.55 1167.03C1246.01 1164.23 1230.3 1157.53 1216.82 1147.55L1192.18 1165.2L1158.39 1122.27L1183.05 1104.63C1176.73 1089.51 1174.36 1073.25 1176.16 1057.33L1147.2 1044.99L1167.77 996.7L1196.73 1009.04C1206.98 996.716 1220.34 987.162 1235.62 981.242L1231.24 951.248L1285.59 945.88L1285.64 945.902L1289.99 975.865C1306.53 978.668 1322.24 985.363 1335.72 995.348L1360.3 977.711L1360.33 977.726L1394.12 1020.65L1369.46 1038.29L1369.45 1038.28ZM1327.15 1093.14C1332.61 1080.33 1332.48 1065.76 1326.79 1052.64C1321.1 1039.52 1310.32 1028.91 1296.82 1023.16C1283.33 1017.41 1268.21 1016.98 1254.81 1021.97C1241.4 1026.96 1230.81 1036.95 1225.35 1049.76C1219.89 1062.57 1220.02 1077.13 1225.71 1090.26C1231.4 1103.38 1242.18 1113.98 1255.68 1119.74C1269.17 1125.49 1284.29 1125.92 1297.69 1120.93C1311.1 1115.94 1321.69 1105.94 1327.15 1093.14Z" fill="#4A587A"/>
<path d="M1865.69 687.084C1872 702.194 1874.37 718.439 1872.59 734.355L1901.55 746.696L1880.97 794.999L1852.01 782.658C1841.77 794.983 1828.4 804.536 1813.12 810.456L1817.48 840.459L1763.11 845.82L1758.79 815.832C1742.25 813.028 1726.54 806.334 1713.06 796.349L1688.42 813.996L1654.63 771.071L1679.29 753.431C1672.97 738.309 1670.61 722.053 1672.4 706.127L1643.44 693.786L1664.01 645.5L1692.98 657.84C1703.22 645.516 1716.58 635.962 1731.86 630.042L1727.48 600.048L1781.83 594.68L1781.88 594.701L1786.24 624.665C1802.77 627.468 1818.49 634.163 1831.96 644.148L1856.54 626.511L1856.57 626.525L1890.36 669.451L1865.71 687.091L1865.69 687.084ZM1823.39 741.937C1828.85 729.131 1828.72 714.564 1823.03 701.441C1817.35 688.318 1806.57 677.715 1793.07 671.962C1779.57 666.21 1764.45 665.781 1751.05 670.769C1737.64 675.757 1727.05 685.754 1721.59 698.561C1716.14 711.367 1716.26 725.934 1721.95 739.057C1727.64 752.18 1738.42 762.784 1751.92 768.536C1765.42 774.288 1780.53 774.717 1793.94 769.729C1807.34 764.741 1817.94 754.744 1823.39 741.937Z" fill="#4A587A"/>
<path d="M1495.15 578.917C1499.76 589.963 1501.5 601.839 1500.2 613.475L1521.37 622.499L1506.33 657.808L1485.15 648.785C1477.66 657.794 1467.89 664.777 1456.72 669.103L1459.91 691.037L1420.15 694.952L1416.99 673.029C1404.9 670.978 1393.41 666.082 1383.55 658.782L1365.54 671.681L1340.83 640.298L1358.85 627.404C1354.24 616.35 1352.5 604.465 1353.81 592.823L1332.64 583.799L1347.68 548.501L1368.86 557.525C1376.34 548.516 1386.12 541.533 1397.29 537.206L1394.08 515.279L1433.82 511.359L1433.86 511.375L1437.05 533.279C1449.14 535.33 1460.63 540.226 1470.48 547.526L1488.45 534.635L1488.47 534.645L1513.19 566.028L1495.16 578.922L1495.15 578.917ZM1464.22 619.014C1468.21 609.652 1468.12 599.003 1463.96 589.409C1459.8 579.816 1451.91 572.063 1442.04 567.857C1432.17 563.651 1421.12 563.336 1411.32 566.981C1401.52 570.627 1393.77 577.934 1389.78 587.295C1385.79 596.657 1385.89 607.306 1390.05 616.9C1394.21 626.494 1402.09 634.247 1411.96 638.453C1421.83 642.659 1432.89 642.974 1442.69 639.328C1452.49 635.683 1460.23 628.375 1464.22 619.014Z" fill="#4A587A"/>
<path d="M127.06 911.003C125.241 918.148 126.108 925.969 130.098 932.845L176.101 1012.13C179.983 1018.82 186.364 1023.7 193.841 1025.68C201.317 1027.67 209.276 1026.6 215.966 1022.72L266.523 993.389C265.837 991.359 265.47 989.183 265.463 986.913L265.439 974.749L207.602 1008.31C204.735 1009.97 201.324 1010.43 198.12 1009.58C194.916 1008.72 192.181 1006.64 190.517 1003.77L150.787 935.293L251.698 876.743L256.942 885.782C260.586 881.439 265.164 877.976 270.334 875.651L259.841 857.567C255.851 850.69 249.491 846.056 242.387 844.089L242.177 843.729L241.817 843.938C234.42 842.044 226.575 843.135 219.975 846.976L140.688 892.98C133.812 896.97 129.178 903.329 127.211 910.434L126.851 910.643L127.06 911.003ZM268.798 886.09C270.985 884.536 273.375 883.292 275.902 882.392L275.954 909.897C275.916 911.199 276.14 912.496 276.612 913.709C277.085 914.923 277.796 916.03 278.705 916.963C279.613 917.897 280.7 918.639 281.9 919.144C283.101 919.65 284.391 919.909 285.693 919.907C286.996 919.904 288.284 919.64 289.483 919.13C290.682 918.62 291.765 917.874 292.67 916.937C293.575 916 294.283 914.891 294.751 913.676C295.219 912.46 295.438 911.163 295.395 909.861L295.338 882.349C300.81 884.27 305.586 887.779 309.054 892.427C312.523 897.075 314.528 902.651 314.813 908.444C315.097 914.236 313.649 919.982 310.653 924.948C307.657 929.914 303.249 933.874 297.992 936.323L298.101 986.84C298.109 990.064 296.836 993.159 294.561 995.445C292.287 997.73 289.198 999.018 285.975 999.026C282.751 999.034 279.656 997.761 277.37 995.486C275.085 993.212 273.797 990.123 273.789 986.9L273.686 936.475C269.002 934.364 264.959 931.054 261.965 926.879C258.971 922.704 257.134 917.813 256.638 912.699C256.142 907.586 257.005 902.432 259.14 897.76C261.276 893.087 264.607 889.061 268.798 886.09ZM205.592 925.104C206.376 925.348 207.104 925.744 207.735 926.27C208.366 926.796 208.887 927.44 209.268 928.167C209.65 928.894 209.884 929.689 209.958 930.507C210.033 931.325 209.945 932.149 209.701 932.933L201.611 958.793L228.077 964.605C229.696 964.96 231.108 965.945 232.002 967.342C232.895 968.739 233.197 970.433 232.841 972.053C232.486 973.672 231.501 975.084 230.104 975.977C228.707 976.871 227.013 977.173 225.393 976.817L192.269 969.542C191.422 969.356 190.623 968.996 189.923 968.485C189.223 967.974 188.637 967.323 188.202 966.573C187.767 965.824 187.493 964.992 187.396 964.13C187.3 963.269 187.384 962.397 187.643 961.57L197.766 929.202C198.011 928.418 198.408 927.69 198.934 927.06C199.46 926.429 200.105 925.909 200.833 925.528C201.56 925.147 202.356 924.913 203.173 924.84C203.991 924.766 204.815 924.855 205.599 925.1L205.592 925.104ZM254.326 960.03L261.141 938.233C254.856 932.802 250.554 925.435 248.913 917.292L226.699 912.415C225.897 912.238 225.068 912.222 224.26 912.366C223.452 912.51 222.68 912.812 221.988 913.254C221.296 913.697 220.699 914.271 220.229 914.944C219.759 915.618 219.427 916.377 219.251 917.179C219.075 917.981 219.058 918.81 219.202 919.618C219.346 920.426 219.648 921.198 220.091 921.89C220.533 922.582 221.107 923.179 221.781 923.649C222.454 924.119 223.214 924.451 224.015 924.627L250.481 930.438L242.392 956.299C241.897 957.881 242.051 959.596 242.82 961.065C243.589 962.534 244.911 963.637 246.493 964.132C248.076 964.626 249.79 964.472 251.259 963.703C252.728 962.934 253.831 961.613 254.326 960.03Z" fill="#4A587A"/>
<path d="M594.03 630.721L622.191 709.139C622.93 711.201 624.068 713.097 625.54 714.718C627.013 716.34 628.79 717.655 630.771 718.59C632.752 719.524 634.898 720.058 637.086 720.163C639.274 720.267 641.46 719.939 643.521 719.198C647.68 717.703 651.076 714.618 652.961 710.621C654.846 706.624 655.066 702.042 653.573 697.882L625.397 619.457M643.485 588.231L686.499 572.785C690.658 571.291 695.24 571.512 699.238 573.397C703.235 575.282 706.32 578.677 707.814 582.836C709.307 586.996 709.087 591.578 707.202 595.575C705.317 599.572 701.922 602.657 697.763 604.152L628.902 628.886M546.793 639.007L544.568 657.518L510.389 660.933L504.757 645.249L533.311 626.136L546.793 639.007ZM546.793 639.007L578.182 627.735" stroke="#3F3D56" stroke-width="12.5" stroke-linecap="round" stroke-linejoin="round"/>
<path d="M594.03 630.721C574.803 629.431 554.096 618.146 547.166 598.847C540.235 579.547 548.773 553.998 563.05 544.451L575.159 578.169L597.601 591.36L606.533 566.909L594.417 533.187C611.518 531.466 634.355 545.754 641.278 565.05C648.209 584.35 639.415 606.222 625.401 619.45" stroke="#3F3D56" stroke-width="12.5" stroke-linecap="round" stroke-linejoin="round"/>
<path d="M725.044 431.182L742.856 487.606C743.323 489.089 744.07 490.444 745.054 491.592C746.039 492.739 747.24 493.658 748.591 494.295C749.942 494.932 751.416 495.275 752.927 495.304C754.439 495.333 755.959 495.048 757.401 494.465C760.311 493.289 762.727 490.974 764.116 488.026C765.506 485.079 765.756 481.742 764.812 478.749L746.99 422.32M760.174 399.226L790.268 387.074C793.178 385.9 796.345 385.962 799.07 387.247C801.796 388.533 803.858 390.936 804.803 393.928C805.748 396.921 805.498 400.258 804.108 403.205C802.718 406.153 800.303 408.468 797.393 409.644L749.214 429.102M692.18 438.216L690.245 451.725L666.521 454.938L662.958 443.653L683.126 429.144L692.18 438.216ZM692.18 438.216L714.141 429.348" stroke="#3F3D56" stroke-width="12.5" stroke-linecap="round" stroke-linejoin="round"/>
<path d="M725.045 431.182C711.767 430.654 697.679 422.89 693.296 409.003C688.912 395.117 695.366 376.355 705.45 369.107L713.108 393.368L728.356 402.481L735.059 384.509L727.396 360.245C739.266 358.629 754.763 368.532 759.142 382.416C763.525 396.302 756.973 412.396 746.993 422.315" stroke="#3F3D56" stroke-width="12.5" stroke-linecap="round" stroke-linejoin="round"/>
<path d="M618.981 151.084C625.294 166.194 627.666 182.439 625.882 198.355L654.844 210.696L634.263 258.999L605.301 246.658C595.057 258.983 581.692 268.536 566.412 274.456L570.768 304.459L516.402 309.82L512.079 279.832C495.543 277.028 479.831 270.334 466.354 260.349L441.715 277.996L407.923 235.071L432.579 217.431C426.266 202.309 423.899 186.053 425.692 170.127L396.73 157.786L417.305 109.5L446.267 121.84C456.511 109.516 469.876 99.9621 485.155 94.0419L480.775 64.0481L535.125 58.6796L535.176 58.7013L539.529 88.6645C556.065 91.4683 571.777 98.1629 585.254 108.148L609.829 90.5109L609.863 90.5253L643.655 133.451L618.998 151.091L618.981 151.084ZM576.684 205.937C582.14 193.131 582.011 178.564 576.324 165.441C570.637 152.318 559.858 141.715 546.359 135.962C532.859 130.21 517.745 129.781 504.341 134.769C490.936 139.757 480.341 149.754 474.884 162.561C469.427 175.367 469.556 189.934 475.243 203.057C480.93 216.18 491.709 226.784 505.209 232.536C518.708 238.288 533.823 238.717 547.227 233.729C560.631 228.741 571.227 218.744 576.684 205.937Z" fill="#4A587A"/>
<path d="M418.69 511.084C425.002 526.194 427.374 542.439 425.591 558.355L454.553 570.696L433.971 618.999L405.009 606.658C394.765 618.983 381.4 628.536 366.121 634.456L370.477 664.459L316.11 669.82L311.788 639.832C295.251 637.028 279.54 630.334 266.063 620.349L241.423 637.996L207.631 595.071L232.288 577.431C225.974 562.309 223.607 546.053 225.4 530.127L196.438 517.786L217.013 469.5L245.975 481.84C256.219 469.516 269.584 459.962 284.864 454.042L280.484 424.048L334.833 418.68L334.884 418.701L339.237 448.665C355.774 451.468 371.485 458.163 384.962 468.148L409.537 450.511L409.571 450.525L443.363 493.451L418.706 511.091L418.69 511.084ZM376.392 565.937C381.849 553.131 381.72 538.564 376.032 525.441C370.345 512.318 359.567 501.715 346.067 495.962C332.568 490.21 317.453 489.781 304.049 494.769C290.645 499.757 280.049 509.754 274.592 522.561C269.135 535.367 269.265 549.934 274.952 563.057C280.639 576.18 291.418 586.784 304.917 592.536C318.417 598.288 333.531 598.717 346.935 593.729C360.339 588.741 370.935 578.744 376.392 565.937Z" fill="#4A587A"/>
<path d="M1697.43 103.231C1715.24 120.17 1728.22 140.948 1735.2 163.692H1783V241.53H1735.2C1728.23 264.292 1715.25 285.089 1697.43 302.042L1721.37 340.43L1648.63 379.336L1624.74 340.948C1599.98 346.735 1574.05 346.735 1549.28 340.948L1525.37 379.336L1452.63 340.43L1476.57 302.042C1458.75 285.089 1445.77 264.292 1438.8 241.53H1391V163.717H1438.8C1445.77 140.955 1458.75 120.159 1476.57 103.205L1452.6 64.8438L1525.32 25.9375H1525.4L1549.31 64.2731C1574.08 58.487 1600.01 58.487 1624.77 64.2731L1648.6 25.9375H1648.66L1721.4 64.8438L1697.46 103.231H1697.43ZM1671 202.624C1671 181.987 1662.15 162.195 1646.4 147.602C1630.64 133.009 1609.28 124.811 1587 124.811C1564.72 124.811 1543.36 133.009 1527.6 147.602C1511.85 162.195 1503 181.987 1503 202.624C1503 223.261 1511.85 243.053 1527.6 257.645C1543.36 272.238 1564.72 280.436 1587 280.436C1609.28 280.436 1630.64 272.238 1646.4 257.645C1662.15 243.053 1671 223.261 1671 202.624Z" fill="#4A587A"/>
<path d="M1497.11 887.267L1438.19 946.183C1436.65 947.731 1435.42 949.569 1434.58 951.593C1433.74 953.616 1433.31 955.785 1433.31 957.975C1433.31 960.165 1433.74 962.334 1434.58 964.357C1435.42 966.381 1436.65 968.219 1438.19 969.767C1441.32 972.891 1445.56 974.647 1449.98 974.647C1454.4 974.647 1458.64 972.891 1461.76 969.767L1520.68 910.833M1556.64 913.875L1588.95 946.192C1592.08 949.317 1593.83 953.556 1593.83 957.975C1593.83 962.395 1592.08 966.633 1588.95 969.758C1585.83 972.883 1581.59 974.638 1577.17 974.638C1572.75 974.638 1568.51 972.883 1565.39 969.758L1513.64 918.025M1469.47 848.075L1451.78 853.958L1434.11 824.5L1445.89 812.717L1475.36 830.392L1469.47 848.075ZM1469.47 848.075L1493.05 871.658" stroke="#3F3D56" stroke-width="12.5" stroke-linecap="round" stroke-linejoin="round"/>
<path d="M1497.11 887.267C1490.08 869.325 1491.45 845.783 1505.95 831.283C1520.45 816.783 1547.2 813.608 1561.93 822.45L1536.59 847.783L1534.24 873.708L1560.16 871.358L1585.49 846.017C1594.34 860.75 1591.16 887.5 1576.66 901.992C1562.16 916.492 1538.63 917.867 1520.69 910.833" stroke="#3F3D56" stroke-width="12.5" stroke-linecap="round" stroke-linejoin="round"/>
<path d="M940.361 694.292C935.203 699.559 932.028 706.759 932.028 714.709V806.375C932.028 814.111 935.101 821.529 940.571 826.999C946.041 832.469 953.459 835.542 961.195 835.542H1019.64C1020.07 833.442 1020.84 831.375 1021.98 829.409L1028.06 818.875H961.195C957.88 818.875 954.7 817.558 952.356 815.214C950.012 812.87 948.695 809.691 948.695 806.375V727.209H1065.36V737.659C1070.69 735.731 1076.39 735.033 1082.03 735.617V714.709C1082.03 706.759 1078.85 699.559 1073.69 694.292V693.875H1073.28C1067.83 688.524 1060.5 685.531 1052.86 685.542H961.195C953.245 685.542 946.045 688.717 940.778 693.875H940.361V694.292ZM1075.46 743.875C1078.13 743.629 1080.82 743.752 1083.46 744.242L1069.7 768.059C1069.02 769.166 1068.56 770.399 1068.36 771.686C1068.16 772.973 1068.22 774.288 1068.54 775.551C1068.85 776.814 1069.42 778.001 1070.21 779.041C1070.99 780.081 1071.98 780.952 1073.1 781.604C1074.23 782.255 1075.48 782.674 1076.77 782.834C1078.06 782.994 1079.38 782.893 1080.63 782.537C1081.88 782.181 1083.05 781.576 1084.06 780.76C1085.08 779.943 1085.92 778.931 1086.54 777.784L1100.29 753.959C1104.06 758.367 1106.43 763.798 1107.1 769.559C1107.77 775.32 1106.7 781.149 1104.04 786.303C1101.38 791.456 1097.25 795.699 1092.16 798.491C1087.08 801.282 1081.28 802.496 1075.5 801.975L1050.24 845.725C1048.63 848.518 1045.98 850.556 1042.87 851.391C1039.75 852.227 1036.43 851.791 1033.64 850.18C1030.85 848.568 1028.81 845.914 1027.97 842.8C1027.14 839.686 1027.58 836.368 1029.19 833.575L1054.4 789.909C1051.41 785.733 1049.57 780.84 1049.08 775.727C1048.59 770.613 1049.45 765.46 1051.59 760.788C1053.73 756.116 1057.06 752.092 1061.25 749.122C1065.44 746.152 1070.35 744.342 1075.46 743.875ZM1001.21 745.9C1001.77 746.505 1002.2 747.213 1002.48 747.984C1002.76 748.755 1002.89 749.574 1002.85 750.395C1002.82 751.215 1002.62 752.02 1002.28 752.765C1001.93 753.509 1001.44 754.178 1000.84 754.734L980.861 773.042L1000.84 791.35C1002.06 792.471 1002.79 794.031 1002.86 795.688C1002.93 797.344 1002.34 798.961 1001.22 800.184C1000.1 801.406 998.539 802.133 996.882 802.205C995.226 802.277 993.609 801.688 992.386 800.567L967.386 777.65C966.747 777.065 966.237 776.353 965.888 775.559C965.539 774.766 965.358 773.909 965.358 773.042C965.358 772.175 965.539 771.318 965.888 770.525C966.237 769.731 966.747 769.019 967.386 768.434L992.386 745.517C992.991 744.962 993.7 744.532 994.471 744.25C995.243 743.969 996.062 743.843 996.882 743.878C997.703 743.914 998.508 744.111 999.252 744.458C999.996 744.805 1000.67 745.295 1001.22 745.9H1001.21ZM1025.84 800.567L1042.67 785.134C1039.96 777.281 1039.94 768.751 1042.6 760.884L1025.84 745.517C1025.23 744.962 1024.52 744.532 1023.75 744.251C1022.98 743.97 1022.16 743.844 1021.34 743.879C1020.52 743.915 1019.71 744.112 1018.97 744.458C1018.23 744.805 1017.56 745.295 1017 745.9C1016.45 746.506 1016.02 747.214 1015.74 747.986C1015.46 748.757 1015.33 749.576 1015.37 750.396C1015.4 751.217 1015.6 752.022 1015.94 752.766C1016.29 753.51 1016.78 754.179 1017.39 754.734L1037.36 773.042L1017.39 791.35C1016.16 792.471 1015.44 794.031 1015.37 795.688C1015.29 797.344 1015.88 798.961 1017 800.184C1018.12 801.406 1019.68 802.133 1021.34 802.205C1023 802.277 1024.61 801.688 1025.84 800.567Z" fill="#4A587A"/>
<path d="M502.599 921.345C500.781 928.489 501.648 936.31 505.637 943.186L551.641 1022.47C555.523 1029.16 561.904 1034.04 569.38 1036.03C576.856 1038.01 584.815 1036.95 591.506 1033.06L642.062 1003.73C641.376 1001.7 641.009 999.524 641.003 997.254L640.978 985.091L583.142 1018.65C580.274 1020.31 576.863 1020.77 573.659 1019.92C570.455 1019.07 567.72 1016.98 566.057 1014.11L526.327 945.634L627.238 887.084L632.482 896.123C636.126 891.781 640.703 888.318 645.873 885.993L635.38 867.908C631.39 861.032 625.031 856.397 617.926 854.431L617.717 854.07L617.357 854.279C609.96 852.385 602.114 853.476 595.515 857.318L516.228 903.321C509.351 907.311 504.717 913.67 502.75 920.775L502.39 920.984L502.599 921.345ZM644.338 896.431C646.524 894.878 648.915 893.633 651.441 892.734L651.494 920.239C651.456 921.541 651.679 922.837 652.152 924.051C652.624 925.265 653.336 926.371 654.244 927.305C655.153 928.238 656.239 928.98 657.44 929.485C658.64 929.991 659.93 930.25 661.233 930.248C662.535 930.245 663.824 929.981 665.023 929.471C666.221 928.961 667.305 928.216 668.21 927.279C669.115 926.342 669.822 925.233 670.29 924.017C670.758 922.801 670.977 921.504 670.934 920.202L670.878 892.69C676.35 894.612 681.125 898.12 684.594 902.768C688.063 907.416 690.067 912.992 690.352 918.785C690.637 924.577 689.189 930.323 686.193 935.289C683.197 940.255 678.789 944.215 673.532 946.664L673.641 997.182C673.648 1000.41 672.375 1003.5 670.101 1005.79C667.827 1008.07 664.738 1009.36 661.514 1009.37C658.29 1009.38 655.195 1008.1 652.91 1005.83C650.625 1003.55 649.336 1000.46 649.329 997.241L649.225 946.816C644.542 944.706 640.498 941.395 637.505 937.22C634.511 933.045 632.673 928.154 632.177 923.04C631.681 917.927 632.544 912.773 634.68 908.101C636.815 903.428 640.147 899.403 644.338 896.431ZM581.131 935.446C581.915 935.69 582.644 936.086 583.274 936.611C583.905 937.137 584.426 937.782 584.808 938.509C585.189 939.236 585.424 940.031 585.498 940.848C585.572 941.666 585.485 942.49 585.24 943.274L577.151 969.135L603.616 974.946C605.236 975.302 606.648 976.286 607.541 977.683C608.435 979.08 608.737 980.774 608.381 982.394C608.025 984.013 607.041 985.425 605.644 986.319C604.247 987.212 602.552 987.514 600.933 987.158L567.808 979.883C566.962 979.697 566.163 979.338 565.463 978.827C564.763 978.316 564.176 977.664 563.742 976.915C563.307 976.165 563.032 975.333 562.936 974.472C562.84 973.61 562.924 972.738 563.183 971.911L573.306 939.543C573.551 938.759 573.947 938.031 574.474 937.401C575 936.771 575.645 936.25 576.372 935.869C577.1 935.488 577.895 935.254 578.713 935.181C579.531 935.108 580.355 935.196 581.139 935.441L581.131 935.446ZM629.866 970.371L636.68 948.574C630.395 943.143 626.094 935.776 624.453 927.633L602.238 922.756C601.437 922.58 600.608 922.563 599.8 922.707C598.991 922.851 598.219 923.153 597.528 923.596C596.836 924.038 596.238 924.612 595.769 925.286C595.299 925.959 594.967 926.719 594.79 927.52C594.614 928.322 594.598 929.151 594.742 929.959C594.886 930.768 595.188 931.54 595.63 932.231C596.073 932.923 596.647 933.521 597.32 933.99C597.994 934.46 598.753 934.792 599.555 934.968L626.021 940.78L617.931 966.64C617.436 968.223 617.591 969.937 618.36 971.406C619.129 972.875 620.45 973.978 622.033 974.473C623.615 974.968 625.33 974.814 626.799 974.044C628.268 973.275 629.371 971.954 629.866 970.371Z" fill="#4A587A"/>
<path d="M963.599 204.345C961.781 211.489 962.648 219.31 966.637 226.186L1012.64 305.474C1016.52 312.164 1022.9 317.039 1030.38 319.025C1037.86 321.011 1045.82 319.946 1052.51 316.064L1103.06 286.73C1102.38 284.701 1102.01 282.524 1102 280.254L1101.98 268.091L1044.14 301.648C1041.27 303.312 1037.86 303.768 1034.66 302.917C1031.46 302.066 1028.72 299.977 1027.06 297.109L987.327 228.634L1088.24 170.084L1093.48 179.123C1097.13 174.781 1101.7 171.318 1106.87 168.993L1096.38 150.908C1092.39 144.032 1086.03 139.397 1078.93 137.431L1078.72 137.07L1078.36 137.279C1070.96 135.385 1063.11 136.476 1056.52 140.318L977.228 186.321C970.351 190.311 965.717 196.67 963.75 203.775L963.39 203.984L963.599 204.345ZM1105.34 179.431C1107.52 177.878 1109.91 176.633 1112.44 175.734L1112.49 203.239C1112.46 204.541 1112.68 205.837 1113.15 207.051C1113.62 208.265 1114.34 209.371 1115.24 210.305C1116.15 211.238 1117.24 211.98 1118.44 212.485C1119.64 212.991 1120.93 213.25 1122.23 213.248C1123.54 213.245 1124.82 212.981 1126.02 212.471C1127.22 211.961 1128.3 211.216 1129.21 210.279C1130.11 209.342 1130.82 208.233 1131.29 207.017C1131.76 205.801 1131.98 204.504 1131.93 203.202L1131.88 175.69C1137.35 177.612 1142.13 181.12 1145.59 185.768C1149.06 190.416 1151.07 195.992 1151.35 201.785C1151.64 207.577 1150.19 213.323 1147.19 218.289C1144.2 223.255 1139.79 227.215 1134.53 229.664L1134.64 280.182C1134.65 283.406 1133.38 286.501 1131.1 288.786C1128.83 291.071 1125.74 292.359 1122.51 292.367C1119.29 292.375 1116.2 291.102 1113.91 288.828C1111.62 286.554 1110.34 283.465 1110.33 280.241L1110.23 229.816C1105.54 227.706 1101.5 224.395 1098.5 220.22C1095.51 216.045 1093.67 211.154 1093.18 206.04C1092.68 200.927 1093.54 195.773 1095.68 191.101C1097.82 186.428 1101.15 182.403 1105.34 179.431ZM1042.13 218.446C1042.92 218.69 1043.64 219.086 1044.27 219.611C1044.91 220.137 1045.43 220.782 1045.81 221.509C1046.19 222.236 1046.42 223.031 1046.5 223.848C1046.57 224.666 1046.48 225.49 1046.24 226.274L1038.15 252.135L1064.62 257.946C1066.24 258.302 1067.65 259.286 1068.54 260.683C1069.43 262.08 1069.74 263.774 1069.38 265.394C1069.03 267.013 1068.04 268.425 1066.64 269.319C1065.25 270.212 1063.55 270.514 1061.93 270.158L1028.81 262.883C1027.96 262.697 1027.16 262.338 1026.46 261.827C1025.76 261.316 1025.18 260.664 1024.74 259.915C1024.31 259.165 1024.03 258.333 1023.94 257.472C1023.84 256.61 1023.92 255.738 1024.18 254.911L1034.31 222.543C1034.55 221.759 1034.95 221.031 1035.47 220.401C1036 219.771 1036.64 219.25 1037.37 218.869C1038.1 218.488 1038.9 218.254 1039.71 218.181C1040.53 218.108 1041.35 218.196 1042.14 218.441L1042.13 218.446ZM1090.87 253.371L1097.68 231.574C1091.4 226.143 1087.09 218.776 1085.45 210.633L1063.24 205.756C1062.44 205.58 1061.61 205.563 1060.8 205.707C1059.99 205.851 1059.22 206.153 1058.53 206.596C1057.84 207.038 1057.24 207.612 1056.77 208.286C1056.3 208.959 1055.97 209.719 1055.79 210.52C1055.61 211.322 1055.6 212.151 1055.74 212.959C1055.89 213.768 1056.19 214.54 1056.63 215.231C1057.07 215.923 1057.65 216.521 1058.32 216.99C1058.99 217.46 1059.75 217.792 1060.56 217.968L1087.02 223.78L1078.93 249.64C1078.44 251.223 1078.59 252.937 1079.36 254.406C1080.13 255.875 1081.45 256.978 1083.03 257.473C1084.62 257.968 1086.33 257.814 1087.8 257.044C1089.27 256.275 1090.37 254.954 1090.87 253.371Z" fill="#4A587A"/>
</svg>
