<svg width="30" height="32" viewBox="0 0 30 32" fill="none" xmlns="http://www.w3.org/2000/svg">
<path d="M26.7857 0.883789H3.21429C1.43973 0.883789 0 2.37138 0 4.20492V28.5599C0 30.3934 1.43973 31.881 3.21429 31.881H26.7857C28.5603 31.881 30 30.3934 30 28.5599V4.20492C30 2.37138 28.5603 0.883789 26.7857 0.883789ZM16.3259 25.0589C16.3259 28.0756 14.6116 29.4524 12.1138 29.4524C9.85714 29.4524 8.55134 28.2485 7.8817 26.7886L10.1786 25.3564C10.6205 26.1659 11.0223 26.8509 11.9933 26.8509C12.9174 26.8509 13.5067 26.4773 13.5067 25.0173V15.1162H16.3259V25.0589ZM22.9955 29.4524C20.3772 29.4524 18.683 28.1655 17.8594 26.4773L20.1562 25.1073C20.7589 26.1244 21.5491 26.8786 22.9353 26.8786C24.1004 26.8786 24.8504 26.2766 24.8504 25.4394C24.8504 24.4431 24.0871 24.0902 22.7946 23.5021L22.0915 23.1907C20.0558 22.2982 18.7098 21.1704 18.7098 18.7971C18.7098 16.6107 20.3237 14.9502 22.8348 14.9502C24.6295 14.9502 25.9152 15.5936 26.8393 17.2819L24.6429 18.7349C24.1607 17.8423 23.6384 17.4894 22.8281 17.4894C22.0045 17.4894 21.4821 18.0291 21.4821 18.7349C21.4821 19.6067 22.0045 19.9595 23.2165 20.5061L23.9196 20.8175C26.317 21.8761 27.6629 22.9624 27.6629 25.3979C27.6629 28.0133 25.6674 29.4524 22.9955 29.4524Z" fill="#E5E5E5"/>
</svg>
