<svg width="40" height="36" viewBox="0 0 40 36" fill="none" xmlns="http://www.w3.org/2000/svg">
<path d="M20 35.5762C8.95 35.5762 0 27.7182 0 18.0111C0 8.30412 8.95 0.446045 20 0.446045C31.05 0.446045 40 8.30412 40 18.0111C40 27.7182 31.05 35.5762 20 35.5762ZM11.35 12.6087C12.25 12.6087 12.8667 12.8976 13.1667 13.5043C13.4667 14.0821 13.5333 15.1221 13.3833 16.48C13.2167 18.0111 12.9 18.9934 12.4167 19.629C11.95 20.2646 11.2333 20.5823 10.2667 20.5823H8.81667L9.7 12.6087H11.35ZM5.51667 28.6426H7.91667L8.48333 23.5869H10.5333C11.4333 23.5869 12.1667 23.4136 12.75 23.0958C13.3333 22.7491 13.8667 22.2002 14.35 21.4202C14.75 20.7846 15.0667 20.0912 15.3167 19.3112C15.5667 18.5601 15.75 17.6934 15.8333 16.7689C16.1 14.5155 15.9167 12.7532 15.2833 11.5109C14.6333 10.2397 13.6333 9.63305 12.25 9.63305H7.65L5.51667 28.6426ZM17.6 4.57731L15.4667 23.5869H17.8333L19.0667 12.6954H20.9667C21.5667 12.6954 21.9667 12.8687 22.15 13.2154C22.3333 13.5621 22.3667 14.1977 22.2667 15.1221L21.3167 23.5869H23.7333L24.7167 14.7177C24.9333 12.9265 24.7667 11.6265 24.2667 10.7887C23.7667 10.0086 22.85 9.63305 21.5167 9.63305H19.4L20 4.57731H17.6ZM30 12.6087C30.9167 12.6087 31.5167 12.8976 31.8167 13.5043C32.1167 14.0821 32.1833 15.1221 32.0333 16.48C31.8667 18.0111 31.55 18.9934 31.0833 19.629C30.6 20.2646 29.8833 20.5823 28.9167 20.5823H27.5L28.3333 12.6087H30ZM24.1667 28.6426H26.5667L27.1333 23.5869H29.1667C30.0833 23.5869 30.8333 23.4136 31.4167 23.0958C32 22.7491 32.5 22.2002 33 21.4202C33.4 20.7846 33.7333 20.0912 33.9667 19.3112C34.2167 18.5601 34.4 17.6934 34.5 16.7689C34.75 14.5155 34.5667 12.7532 33.9333 11.5109C33.3333 10.2397 32.2833 9.63305 30.9 9.63305H26.3167L24.1667 28.6426Z" fill="#E5E5E5" fill-opacity="0.898039"/>
</svg>
