<svg width="35" height="37" viewBox="0 0 35 37" fill="none" xmlns="http://www.w3.org/2000/svg">
<g clip-path="url(#clip0_1040_325)">
<path d="M17.5015 7.64526C12.8348 7.64526 9.91813 10.0562 8.75146 14.878C10.5015 12.4671 12.5431 11.563 14.8765 12.1657C16.2079 12.5092 17.1588 13.5068 18.2131 14.6128C19.9296 16.4119 21.9144 18.4943 26.2515 18.4943C30.9181 18.4943 33.8348 16.0834 35.0015 11.2616C33.2515 13.6725 31.2098 14.5766 28.8765 13.9739C27.545 13.6303 26.5942 12.6328 25.5398 11.5268C23.8248 9.72767 21.84 7.64526 17.5015 7.64526ZM8.75146 18.4943C4.0848 18.4943 1.16813 20.9052 0.00146484 25.727C1.75146 23.3161 3.79313 22.412 6.12647 23.0147C7.45792 23.3583 8.40876 24.3558 9.46313 25.4618C11.1796 27.2609 13.1644 29.3433 17.5015 29.3433C22.1681 29.3433 25.0848 26.9324 26.2515 22.1106C24.5015 24.5215 22.4598 25.4256 20.1265 24.8229C18.795 24.4793 17.8442 23.4818 16.7898 22.3758C15.0748 20.5767 13.09 18.4943 8.75146 18.4943Z" fill="#E5E5E5"/>
</g>
<defs>
<clipPath id="clip0_1040_325">
<rect width="35" height="36.1634" fill="white" transform="translate(0 0.412598)"/>
</clipPath>
</defs>
</svg>
